<svg width="35" height="37" viewBox="0 0 35 37" fill="none" xmlns="http://www.w3.org/2000/svg">
<path d="M26.25 36.125V29.75H29.4375V36.125H26.25ZM-7.75 36.125V29.75H24.125V36.125H-7.75ZM26.25 27.625V24.8625C26.25 23.4812 25.8427 22.4272 25.0281 21.7005C24.2135 20.9752 23.2396 20.6125 22.1062 20.6125H18.8125C16.8292 20.6125 15.1469 19.9219 13.7656 18.5406C12.3844 17.1594 11.6937 15.4771 11.6937 13.4938C11.6937 11.5104 12.3844 9.82812 13.7656 8.44687C15.1469 7.06562 16.8292 6.375 18.8125 6.375V9.5625C17.75 9.5625 16.8292 9.93437 16.05 10.6781C15.2708 11.4219 14.8812 12.3604 14.8812 13.4938C14.8812 14.6271 15.2708 15.5656 16.05 16.3094C16.8292 17.0531 17.75 17.425 18.8125 17.425H22.1062C24.0896 17.425 25.8073 18.0625 27.2594 19.3375C28.7115 20.6125 29.4375 22.2063 29.4375 24.1188V27.625H26.25ZM31.5625 36.125V29.75H34.75V36.125H31.5625ZM31.5625 27.625V22.8438C31.5625 20.5063 30.7479 18.4875 29.1188 16.7875C27.4896 15.0875 25.4708 14.2375 23.0625 14.2375V11.05C24.125 11.05 25.0458 10.6604 25.825 9.88125C26.6042 9.10208 26.9938 8.18125 26.9938 7.11875C26.9938 6.05625 26.6042 5.13542 25.825 4.35625C25.0458 3.57708 24.125 3.1875 23.0625 3.1875V0C25.0458 0 26.7281 0.690625 28.1094 2.07187C29.4906 3.45312 30.1813 5.13542 30.1813 7.11875C30.1813 8.14583 29.9865 9.07517 29.5969 9.90675C29.2073 10.7397 28.6938 11.5104 28.0563 12.2188C30.0396 13.1396 31.651 14.5562 32.8906 16.4688C34.1302 18.3813 34.75 20.5063 34.75 22.8438V27.625H31.5625Z" fill="black"/>
</svg>
