<svg width="393" height="301" viewBox="0 0 393 301" fill="none" xmlns="http://www.w3.org/2000/svg">
<g clip-path="url(#clip0_3_57)">
<rect width="401" height="301" fill="black"/>
<g opacity="0.5" clip-path="url(#clip1_3_57)">
<path d="M79 226.493C79 258.801 52.8155 285 20.5072 285C-11.801 285 -38 258.815 -38 226.493C-38 194.17 -11.8155 168 20.4928 168C52.801 168 78.9855 194.185 78.9855 226.493H79Z" fill="#2D2B2C"/>
<path d="M61.0622 226.493C61.0622 248.893 42.9078 267.062 20.4928 267.062C-1.92224 267.062 -20.0767 248.908 -20.0767 226.493C-20.0767 204.078 -1.92224 185.923 20.4928 185.923C42.9078 185.923 61.0622 204.078 61.0622 226.493Z" fill="#191516"/>
<path d="M55.4874 226.493C55.4874 245.817 39.8171 261.473 20.5072 261.473C1.19738 261.473 -14.4729 245.803 -14.4729 226.493C-14.4729 207.183 1.19738 191.513 20.5072 191.513C39.8171 191.513 55.4874 207.183 55.4874 226.493Z" fill="#110E0F"/>
<path d="M52.671 226.493C52.671 244.257 38.2717 258.671 20.4928 258.671C2.71385 258.671 -11.6855 244.272 -11.6855 226.493C-11.6855 208.714 2.71385 194.315 20.4928 194.315C38.2717 194.315 52.671 208.714 52.671 226.493Z" fill="#393939"/>
<path d="M51.7034 226.493C51.7034 243.723 37.7373 257.689 20.5072 257.689C3.27715 257.689 -10.6889 243.723 -10.6889 226.493C-10.6889 209.263 3.27715 195.297 20.5072 195.297C37.7373 195.297 51.7034 209.263 51.7034 226.493Z" fill="#2D2B2C"/>
<path d="M48.2227 226.493C48.2227 241.802 35.8164 254.208 20.5072 254.208C5.19799 254.208 -7.20825 241.802 -7.20825 226.493C-7.20825 211.184 5.19799 198.777 20.5072 198.777C35.8164 198.777 48.2227 211.184 48.2227 226.493Z" fill="#393939"/>
<path d="M47.2984 226.493C47.2984 241.297 35.2965 253.298 20.4928 253.298C5.68904 253.298 -6.31281 241.297 -6.31281 226.493C-6.31281 211.689 5.68904 199.687 20.4928 199.687C35.2965 199.687 47.2984 211.689 47.2984 226.493Z" fill="url(#paint0_linear_3_57)"/>
<path opacity="0.07" d="M47.2984 226.493C47.2984 241.297 35.2965 253.298 20.4928 253.298C5.68904 253.298 -6.31281 241.297 -6.31281 226.493C-6.31281 211.689 5.68904 199.687 20.4928 199.687C35.2965 199.687 47.2984 211.689 47.2984 226.493Z" fill="url(#paint1_linear_3_57)"/>
<path opacity="0.22" d="M37.8095 226.493C37.8095 236.054 30.0538 243.81 20.4928 243.81C10.9317 243.81 3.17603 236.054 3.17603 226.493C3.17603 216.932 10.9317 209.176 20.4928 209.176C30.0538 209.176 37.8095 216.932 37.8095 226.493Z" fill="white"/>
<path opacity="0.22" d="M47.2984 226.493C47.2984 241.297 35.2965 253.298 20.4928 253.298C5.68904 253.298 -6.31281 241.297 -6.31281 226.493C-6.31281 211.689 5.68904 199.687 20.4928 199.687C35.2965 199.687 47.2984 211.689 47.2984 226.493Z" fill="#231F20"/>
<path opacity="0.47" d="M32.408 226.493C32.408 233.064 27.0786 238.394 20.5072 238.394C13.9358 238.394 8.60648 233.064 8.60648 226.493C8.60648 219.921 13.9358 214.592 20.5072 214.592C27.0786 214.592 32.408 219.921 32.408 226.493Z" fill="#2D2B2C"/>
<path opacity="0.47" d="M27.9452 226.493C27.9452 230.609 24.6089 233.945 20.4928 233.945C16.3766 233.945 13.0404 230.609 13.0404 226.493C13.0404 222.377 16.3766 219.04 20.4928 219.04C24.6089 219.04 27.9452 222.377 27.9452 226.493Z" fill="#191516"/>
<path opacity="0.47" d="M24.089 226.493C24.089 228.471 22.4859 230.075 20.5072 230.075C18.5286 230.075 16.9254 228.471 16.9254 226.493C16.9254 224.514 18.5286 222.911 20.5072 222.911C22.4859 222.911 24.089 224.514 24.089 226.493Z" fill="#0A0808"/>
<g opacity="0.2" filter="url(#filter0_f_3_57)">
<path d="M41.6657 225.034C37.564 232.4 36.1775 218.838 27.0498 213.74C17.9076 208.642 4.47587 213.957 8.59203 206.591C12.6937 199.225 24.1179 198.922 33.2601 204.006C42.3879 209.104 45.7819 217.654 41.6802 225.034H41.6657Z" fill="white"/>
</g>
<path opacity="0.2" d="M22.2837 241.21C20.8683 245.875 15.5823 248.402 10.484 246.857C5.38575 245.312 2.39612 240.257 3.82594 235.592C5.25576 230.927 10.5273 228.399 15.6256 229.945C20.7239 231.49 23.7135 236.545 22.2837 241.21Z" fill="white"/>
</g>
<g opacity="0.4" clip-path="url(#clip2_3_57)">
<path d="M437 48.9874C437 105.32 391.345 151 335.013 151C278.68 151 233 105.345 233 48.9874C233 -7.37008 278.655 -53 334.987 -53C391.32 -53 436.975 -7.3449 436.975 48.9874H437Z" fill="#2D2B2C"/>
<path d="M405.724 48.9874C405.724 88.0448 374.07 119.724 334.987 119.724C295.905 119.724 264.251 88.07 264.251 48.9874C264.251 9.90481 295.905 -21.7491 334.987 -21.7491C374.07 -21.7491 405.724 9.90481 405.724 48.9874Z" fill="#191516"/>
<path d="M396.004 48.9874C396.004 82.681 368.681 109.978 335.013 109.978C301.344 109.978 274.022 82.6558 274.022 48.9874C274.022 15.3189 301.344 -12.0036 335.013 -12.0036C368.681 -12.0036 396.004 15.3189 396.004 48.9874Z" fill="#110E0F"/>
<path d="M391.093 48.9874C391.093 79.9614 365.987 105.093 334.987 105.093C303.988 105.093 278.882 79.9865 278.882 48.9874C278.882 17.9883 303.988 -7.11826 334.987 -7.11826C365.987 -7.11826 391.093 17.9883 391.093 48.9874Z" fill="#393939"/>
<path d="M389.406 48.9874C389.406 79.0296 365.055 103.381 335.013 103.381C304.97 103.381 280.619 79.0296 280.619 48.9874C280.619 18.9452 304.97 -5.40588 335.013 -5.40588C365.055 -5.40588 389.406 18.9452 389.406 48.9874Z" fill="#2D2B2C"/>
<path d="M383.337 48.9874C383.337 75.6804 361.706 97.3118 335.013 97.3118C308.32 97.3118 286.688 75.6804 286.688 48.9874C286.688 22.2944 308.32 0.662994 335.013 0.662994C361.706 0.662994 383.337 22.2944 383.337 48.9874Z" fill="#393939"/>
<path d="M381.725 48.9874C381.725 74.799 360.799 95.7253 334.987 95.7253C309.176 95.7253 288.249 74.799 288.249 48.9874C288.249 23.1758 309.176 2.24945 334.987 2.24945C360.799 2.24945 381.725 23.1758 381.725 48.9874Z" fill="url(#paint2_linear_3_57)"/>
<path opacity="0.07" d="M381.725 48.9874C381.725 74.799 360.799 95.7253 334.987 95.7253C309.176 95.7253 288.249 74.799 288.249 48.9874C288.249 23.1758 309.176 2.24945 334.987 2.24945C360.799 2.24945 381.725 23.1758 381.725 48.9874Z" fill="url(#paint3_linear_3_57)"/>
<path opacity="0.22" d="M365.181 48.9874C365.181 65.6579 351.658 79.1807 334.987 79.1807C318.317 79.1807 304.794 65.6579 304.794 48.9874C304.794 32.3169 318.317 18.7941 334.987 18.7941C351.658 18.7941 365.181 32.3169 365.181 48.9874Z" fill="white"/>
<path opacity="0.22" d="M381.725 48.9874C381.725 74.799 360.799 95.7253 334.987 95.7253C309.176 95.7253 288.249 74.799 288.249 48.9874C288.249 23.1758 309.176 2.24945 334.987 2.24945C360.799 2.24945 381.725 23.1758 381.725 48.9874Z" fill="#231F20"/>
<path opacity="0.47" d="M355.763 48.9874C355.763 60.4452 346.47 69.7374 335.013 69.7374C323.555 69.7374 314.263 60.4452 314.263 48.9874C314.263 37.5296 323.555 28.2374 335.013 28.2374C346.47 28.2374 355.763 37.5296 355.763 48.9874Z" fill="#2D2B2C"/>
<path opacity="0.47" d="M347.981 48.9874C347.981 56.1643 342.164 61.9813 334.987 61.9813C327.811 61.9813 321.993 56.1643 321.993 48.9874C321.993 41.8105 327.811 35.9934 334.987 35.9934C342.164 35.9934 347.981 41.8105 347.981 48.9874Z" fill="#191516"/>
<path opacity="0.47" d="M341.258 48.9874C341.258 52.4373 338.463 55.2326 335.013 55.2326C331.563 55.2326 328.767 52.4373 328.767 48.9874C328.767 45.5375 331.563 42.7422 335.013 42.7422C338.463 42.7422 341.258 45.5375 341.258 48.9874Z" fill="#0A0808"/>
<g opacity="0.2" filter="url(#filter1_f_3_57)">
<path d="M371.904 46.444C364.753 59.2869 362.335 35.6409 346.42 26.7516C330.48 17.8624 307.06 27.1294 314.237 14.2865C321.389 1.44364 341.308 0.914819 357.248 9.77891C373.163 18.6682 379.081 33.576 371.93 46.444H371.904Z" fill="white"/>
</g>
<g opacity="0.3" filter="url(#filter2_f_3_57)">
<path d="M338.11 74.6479C335.642 82.7817 326.426 87.1886 317.536 84.4941C308.647 81.7996 303.434 72.9859 305.927 64.8521C308.42 56.7183 317.612 52.3114 326.501 55.0059C335.39 57.7004 340.603 66.5141 338.11 74.6479Z" fill="white"/>
</g>
</g>
</g>
<defs>
<filter id="filter0_f_3_57" x="3.82812" y="196.566" width="43.5734" height="34.6124" filterUnits="userSpaceOnUse" color-interpolation-filters="sRGB">
<feFlood flood-opacity="0" result="BackgroundImageFix"/>
<feBlend mode="normal" in="SourceGraphic" in2="BackgroundImageFix" result="shape"/>
<feGaussianBlur stdDeviation="2" result="effect1_foregroundBlur_3_57"/>
</filter>
<filter id="filter1_f_3_57" x="308.905" y="-0.217529" width="70.0253" height="54.4011" filterUnits="userSpaceOnUse" color-interpolation-filters="sRGB">
<feFlood flood-opacity="0" result="BackgroundImageFix"/>
<feBlend mode="normal" in="SourceGraphic" in2="BackgroundImageFix" result="shape"/>
<feGaussianBlur stdDeviation="2" result="effect1_foregroundBlur_3_57"/>
</filter>
<filter id="filter2_f_3_57" x="301.304" y="50.2144" width="41.429" height="39.0713" filterUnits="userSpaceOnUse" color-interpolation-filters="sRGB">
<feFlood flood-opacity="0" result="BackgroundImageFix"/>
<feBlend mode="normal" in="SourceGraphic" in2="BackgroundImageFix" result="shape"/>
<feGaussianBlur stdDeviation="2" result="effect1_foregroundBlur_3_57"/>
</filter>
<linearGradient id="paint0_linear_3_57" x1="7.08998" y1="203.283" x2="33.91" y2="249.717" gradientUnits="userSpaceOnUse">
<stop stop-color="#3FA257"/>
<stop offset="0.02" stop-color="#3FA26D"/>
<stop offset="0.04" stop-color="#3FA27E"/>
<stop offset="0.06" stop-color="#3FA28A"/>
<stop offset="0.09" stop-color="#3FA291"/>
<stop offset="0.17" stop-color="#3FA293"/>
<stop offset="0.2" stop-color="#3D9D95"/>
<stop offset="0.29" stop-color="#3D9C96"/>
<stop offset="0.35" stop-color="#35989E"/>
<stop offset="0.43" stop-color="#2190B5"/>
<stop offset="0.45" stop-color="#1B8EBC"/>
<stop offset="0.66" stop-color="#1B73BC"/>
<stop offset="0.7" stop-color="#1F6EB9"/>
<stop offset="0.76" stop-color="#2B60B0"/>
<stop offset="0.82" stop-color="#3F49A3"/>
<stop offset="0.86" stop-color="#513697"/>
<stop offset="0.9" stop-color="#522A90"/>
<stop offset="0.97" stop-color="#570C80"/>
<stop offset="1" stop-color="#59007A"/>
</linearGradient>
<linearGradient id="paint1_linear_3_57" x1="7.08999" y1="249.717" x2="33.91" y2="203.283" gradientUnits="userSpaceOnUse">
<stop stop-color="#1B1D6A"/>
<stop offset="0.01" stop-color="#1B3783"/>
<stop offset="0.03" stop-color="#1B4D98"/>
<stop offset="0.05" stop-color="#1B5EA8"/>
<stop offset="0.07" stop-color="#1B6AB3"/>
<stop offset="0.1" stop-color="#1B71BA"/>
<stop offset="0.18" stop-color="#1B73BC"/>
<stop offset="0.22" stop-color="#2D6CBC"/>
<stop offset="0.3" stop-color="#515FBD"/>
<stop offset="0.38" stop-color="#6C55BE"/>
<stop offset="0.46" stop-color="#804EBE"/>
<stop offset="0.54" stop-color="#8C4ABE"/>
<stop offset="0.63" stop-color="#9049BF"/>
<stop offset="0.84" stop-color="#732CA9"/>
<stop offset="0.88" stop-color="#6E27A5"/>
<stop offset="1" stop-color="#472798"/>
</linearGradient>
<linearGradient id="paint2_linear_3_57" x1="311.618" y1="8.51979" x2="358.382" y2="89.4802" gradientUnits="userSpaceOnUse">
<stop stop-color="#3FA257"/>
<stop offset="0.02" stop-color="#3FA26D"/>
<stop offset="0.04" stop-color="#3FA27E"/>
<stop offset="0.06" stop-color="#3FA28A"/>
<stop offset="0.09" stop-color="#3FA291"/>
<stop offset="0.17" stop-color="#3FA293"/>
<stop offset="0.2" stop-color="#3D9D95"/>
<stop offset="0.29" stop-color="#3D9C96"/>
<stop offset="0.35" stop-color="#35989E"/>
<stop offset="0.43" stop-color="#2190B5"/>
<stop offset="0.45" stop-color="#1B8EBC"/>
<stop offset="0.66" stop-color="#1B73BC"/>
<stop offset="0.7" stop-color="#1F6EB9"/>
<stop offset="0.76" stop-color="#2B60B0"/>
<stop offset="0.82" stop-color="#3F49A3"/>
<stop offset="0.86" stop-color="#513697"/>
<stop offset="0.9" stop-color="#522A90"/>
<stop offset="0.97" stop-color="#570C80"/>
<stop offset="1" stop-color="#59007A"/>
</linearGradient>
<linearGradient id="paint3_linear_3_57" x1="311.618" y1="89.4802" x2="358.382" y2="8.51979" gradientUnits="userSpaceOnUse">
<stop stop-color="#1B1D6A"/>
<stop offset="0.01" stop-color="#1B3783"/>
<stop offset="0.03" stop-color="#1B4D98"/>
<stop offset="0.05" stop-color="#1B5EA8"/>
<stop offset="0.07" stop-color="#1B6AB3"/>
<stop offset="0.1" stop-color="#1B71BA"/>
<stop offset="0.18" stop-color="#1B73BC"/>
<stop offset="0.22" stop-color="#2D6CBC"/>
<stop offset="0.3" stop-color="#515FBD"/>
<stop offset="0.38" stop-color="#6C55BE"/>
<stop offset="0.46" stop-color="#804EBE"/>
<stop offset="0.54" stop-color="#8C4ABE"/>
<stop offset="0.63" stop-color="#9049BF"/>
<stop offset="0.84" stop-color="#732CA9"/>
<stop offset="0.88" stop-color="#6E27A5"/>
<stop offset="1" stop-color="#472798"/>
</linearGradient>
<clipPath id="clip0_3_57">
<rect width="393" height="301" fill="white"/>
</clipPath>
<clipPath id="clip1_3_57">
<rect width="117" height="117" fill="white" transform="translate(-38 168)"/>
</clipPath>
<clipPath id="clip2_3_57">
<rect width="204" height="204" fill="white" transform="translate(233 -53)"/>
</clipPath>
</defs>
</svg>
