<svg width="22" height="26" viewBox="0 0 22 26" fill="none" xmlns="http://www.w3.org/2000/svg">
<path d="M10.0151 5C6.29482 5 3.28223 7.95781 3.28223 11.6104V13.6948C3.28223 14.3697 2.99917 15.3821 2.64534 15.9578L1.36145 18.062C0.57292 19.3622 1.11883 20.8114 2.57457 21.2878C7.40685 22.8659 12.6334 22.8659 17.4657 21.2878C18.8304 20.8411 19.4168 19.2729 18.6788 18.062L17.3949 15.9578C17.0411 15.3821 16.758 14.3598 16.758 13.6948V11.6104C16.7479 7.97766 13.7151 5 10.0151 5Z" stroke="#404251" stroke-width="2" stroke-miterlimit="10" stroke-linecap="round"/>
<path d="M13.36 21.6948C13.36 23.5112 11.8436 25 9.99355 25C9.0736 25 8.22442 24.6229 7.61785 24.0273C7.01129 23.4318 6.62714 22.598 6.62714 21.6948" stroke="#404251" stroke-width="2" stroke-miterlimit="10"/>
<circle cx="16.0002" cy="6" r="5" fill="#EB0A1E" stroke="#FBFBFF" stroke-width="2"/>
</svg>
