<svg width="122" height="123" viewBox="0 0 122 123" fill="none" xmlns="http://www.w3.org/2000/svg">
<g opacity="0.3">
<ellipse cx="60.2214" cy="60.9551" rx="60.2214" ry="60.9551" transform="matrix(-4.37114e-08 1 -0.99978 0.0209754 121.884 0)" fill="#FF5D5D"/>
<ellipse cx="60.2214" cy="60.9551" rx="60.2214" ry="60.9551" transform="matrix(-4.37114e-08 1 -0.99978 0.0209754 121.884 0)" fill="#CFD3F0"/>
</g>
<g opacity="0.3">
<ellipse cx="39.3755" cy="39.8552" rx="39.3755" ry="39.8552" transform="matrix(-4.37114e-08 1 -0.99978 0.0209754 101.446 20.9609)" fill="#9B9B9B"/>
<ellipse cx="39.3755" cy="39.8552" rx="39.3755" ry="39.8552" transform="matrix(-4.37114e-08 1 -0.99978 0.0209754 101.446 20.9609)" fill="#CFD3F0"/>
</g>
<path d="M61.4418 40.25C57.2389 40.25 53.1304 41.4963 49.6359 43.8313C46.1413 46.1663 43.4177 49.485 41.8093 53.368C40.2009 57.2509 39.7801 61.5236 40.6001 65.6457C41.42 69.7678 43.4439 73.5542 46.4157 76.526C49.3876 79.4979 53.174 81.5218 57.2961 82.3417C61.4182 83.1616 65.6908 82.7408 69.5738 81.1324C73.4567 79.5241 76.7755 76.8004 79.1105 73.3059C81.4455 69.8113 82.6917 65.7029 82.6917 61.5C82.6917 58.7094 82.1421 55.9461 81.0742 53.368C80.0063 50.7898 78.441 48.4472 76.4678 46.474C74.4945 44.5007 72.1519 42.9355 69.5738 41.8676C66.9956 40.7996 64.2323 40.25 61.4418 40.25ZM57.1918 71.0625L57.1918 51.9375L69.9418 61.5L57.1918 71.0625Z" fill="#EB0A1E"/>
</svg>
