<svg width="32" height="32" viewBox="0 0 32 32" fill="none" xmlns="http://www.w3.org/2000/svg">
<circle cx="16" cy="16" r="16" fill="#F7F6F9"/>
<path d="M13.6613 18.0881C14.0755 18.0881 14.4113 18.4239 14.4113 18.8381V22.0812C14.4112 22.4954 14.0754 22.8312 13.6613 22.8312C13.2475 22.8308 12.9113 22.4951 12.9113 22.0812V20.6486L10.1378 23.4221C9.8449 23.7147 9.37007 23.7149 9.07727 23.4221C8.7848 23.1292 8.78478 22.6543 9.07727 22.3615L11.8507 19.5881H10.4181C10.0043 19.5877 9.66818 19.252 9.66809 18.8381C9.66809 18.4241 10.0042 18.0885 10.4181 18.0881H13.6613ZM22.5812 18.0881C22.9953 18.0882 23.3312 18.424 23.3312 18.8381C23.3311 19.2521 22.9952 19.5879 22.5812 19.5881H21.1486L23.922 22.3615C24.2148 22.6543 24.2147 23.1291 23.922 23.4221C23.6291 23.7148 23.1543 23.7149 22.8615 23.4221L20.088 20.6486V22.0812C20.0879 22.4952 19.752 22.831 19.338 22.8312C18.924 22.8311 18.5881 22.4953 18.588 22.0812V18.8381C18.588 18.4239 18.9239 18.0882 19.338 18.0881H22.5812ZM9.07727 8.57831C9.37012 8.28546 9.84491 8.28556 10.1378 8.57831L12.9113 11.3517V9.91913C12.9113 9.50519 13.2474 9.16957 13.6613 9.16913C14.0755 9.16913 14.4113 9.50491 14.4113 9.91913V13.1623C14.4112 13.5764 14.0754 13.9123 13.6613 13.9123H10.4181C10.0042 13.9119 9.66817 13.5762 9.66809 13.1623C9.66809 12.7483 10.0042 12.4127 10.4181 12.4123H11.8507L9.07727 9.63885C8.78468 9.34611 8.78491 8.87119 9.07727 8.57831ZM22.8615 8.57831C23.1543 8.28543 23.6291 8.28545 23.922 8.57831C24.2147 8.87122 24.2148 9.34603 23.922 9.63885L21.1486 12.4123H22.5812C22.9953 12.4124 23.3312 12.7482 23.3312 13.1623C23.3311 13.5763 22.9952 13.9121 22.5812 13.9123H19.338C18.9239 13.9122 18.5881 13.5764 18.588 13.1623V9.91913C18.588 9.50499 18.9239 9.16925 19.338 9.16913C19.752 9.16934 20.088 9.50505 20.088 9.91913V11.3517L22.8615 8.57831Z" fill="black"/>
</svg>
