<svg width="32" height="32" viewBox="0 0 32 32" fill="none" xmlns="http://www.w3.org/2000/svg">
<rect width="32" height="32" rx="16" fill="white"/>
<path d="M16 24C14.1391 24 12.4842 23.4267 11.0351 22.2801C9.58608 21.1335 8.65012 19.6555 8.22724 17.8462H9.48322C9.89769 19.3115 10.7061 20.4984 11.9085 21.4067C13.1108 22.3151 14.4747 22.7692 16 22.7692C17.276 22.7692 18.4489 22.4326 19.5188 21.7594C20.5886 21.0861 21.4344 20.192 22.0561 19.0769H19.4872V17.8462H24V22.359H22.7693V20.2445C22.0056 21.3943 21.0322 22.3077 19.8493 22.9846C18.6664 23.6615 17.3833 24 16 24ZM16 18.0513C15.4267 18.0513 14.9415 17.8527 14.5444 17.4556C14.1473 17.0585 13.9487 16.5733 13.9487 16C13.9487 15.4267 14.1473 14.9415 14.5444 14.5444C14.9415 14.1473 15.4267 13.9487 16 13.9487C16.5733 13.9487 17.0585 14.1473 17.4556 14.5444C17.8527 14.9415 18.0513 15.4267 18.0513 16C18.0513 16.5733 17.8527 17.0585 17.4556 17.4556C17.0585 17.8527 16.5733 18.0513 16 18.0513ZM8 14.1538V9.64103H9.23077V11.7555C9.99448 10.6057 10.9678 9.69232 12.1507 9.01539C13.3336 8.33846 14.6167 8 16 8C17.8609 8 19.5159 8.5733 20.9649 9.7199C22.414 10.8665 23.3499 12.3445 23.7728 14.1538H22.5168C22.1023 12.6885 21.2939 11.5016 20.0916 10.5933C18.8892 9.68491 17.5253 9.23073 16 9.23073C14.724 9.23073 13.5511 9.56736 12.4813 10.2406C11.4114 10.9139 10.5657 11.808 9.94396 12.9231H12.5128V14.1538H8Z" fill="black"/>
</svg>
