<svg width="118" height="32" viewBox="0 0 118 32" fill="none" xmlns="http://www.w3.org/2000/svg">
<path d="M108.874 16.7563L110.722 11.9116L112.567 16.7563H108.874H108.874ZM112.639 9.16069H108.802L103.439 22.2968H106.764L107.985 19.0911H113.455L114.677 22.2968H118L112.639 9.16069ZM85.5738 20.0128C83.4085 20.0128 81.6558 18.0596 81.6558 15.6493C81.6558 13.239 83.4081 11.2843 85.5738 11.2843C87.7395 11.2843 89.491 13.2387 89.491 15.6493C89.491 18.0599 87.7356 20.0128 85.5738 20.0128ZM85.5738 8.71017C81.7404 8.71017 78.6327 11.8171 78.6327 15.6489C78.6327 19.4808 81.7404 22.5861 85.5738 22.5861C89.4072 22.5861 92.5141 19.4808 92.5141 15.6489C92.5141 11.8171 89.4052 8.71017 85.5738 8.71017ZM58.1889 20.0128C56.0271 20.0128 54.2733 18.0596 54.2733 15.6493C54.2733 13.239 56.0271 11.2843 58.1889 11.2843C60.3508 11.2843 62.1073 13.2387 62.1073 15.6493C62.1073 18.0599 60.3535 20.0128 58.1889 20.0128ZM58.1889 8.71017C54.3567 8.71017 51.2517 11.8171 51.2517 15.6489C51.2517 19.4808 54.3567 22.5861 58.1889 22.5861C62.0212 22.5861 65.1288 19.4808 65.1288 15.6489C65.1288 11.8171 62.0212 8.71017 58.1889 8.71017ZM75.3421 9.16069L71.9416 14.4754L68.5385 9.16069H65.213L70.4768 17.3981V22.2964H73.4042V17.3993L78.6676 9.16069H75.3417H75.3421ZM104.139 9.16069H92.9068V11.6797H97.067V22.2968H99.9971V11.6797H104.139V9.16069ZM39.4059 11.6797H43.5677V22.2968H46.4966V11.6797H50.6401V9.16069H39.4063V11.6797H39.4059Z" fill="black"/>
<path d="M31.5248 0H0V31.5248H31.5248V0Z" fill="#EA0A1E"/>
<path d="M21.0199 8.88701C19.5569 8.41659 17.7361 8.1387 15.763 8.1387C13.7898 8.1387 11.9686 8.41659 10.5057 8.88701C6.61454 10.1379 3.94055 12.7361 3.94055 15.7381C3.94055 19.9619 9.23341 23.3865 15.763 23.3865C22.2926 23.3865 27.5843 19.9619 27.5843 15.7381C27.5843 12.7357 24.9107 10.1386 21.0199 8.88701ZM15.763 20.0982C14.7885 20.0982 13.9927 18.1824 13.946 15.7752C14.532 15.828 15.1398 15.8564 15.763 15.8564C16.3861 15.8564 16.9928 15.828 17.5796 15.7752C17.5325 18.1824 16.7371 20.0982 15.763 20.0982ZM14.0689 13.8905C14.3345 12.2006 14.9925 11.0037 15.763 11.0037C16.5335 11.0037 17.1907 12.2006 17.4559 13.8905C16.9147 13.9395 16.3475 13.9667 15.763 13.9667C15.1785 13.9667 14.6109 13.9395 14.0689 13.8905ZM18.4913 13.763C18.0959 11.1109 17.0238 9.20968 15.763 9.20968C14.5022 9.20968 13.4293 11.1109 13.0339 13.763C10.6324 13.3883 8.95399 12.5347 8.95399 11.5411C8.95399 10.2018 12.0027 9.1159 15.763 9.1159C19.5233 9.1159 22.5712 10.2018 22.5712 11.5411C22.5712 12.5351 20.8928 13.3883 18.4909 13.763M5.66567 15.4583C5.66567 14.1634 6.16403 12.95 7.03329 11.9062C7.02333 11.9786 7.01797 12.0517 7.01797 12.1252C7.01797 13.7538 9.4646 15.1383 12.8754 15.6474C12.8727 15.7703 12.8708 15.8935 12.8708 16.0183C12.8708 19.0467 13.711 21.6116 14.8723 22.4962C9.71263 22.1808 5.66567 19.1508 5.66567 15.4583ZM16.6529 22.4962C17.8138 21.612 18.6536 19.0471 18.6536 16.0183C18.6536 15.8939 18.6525 15.7706 18.6494 15.6474C22.0594 15.1383 24.5065 13.7538 24.5065 12.1252C24.5065 12.0517 24.5007 11.979 24.4908 11.9062C25.36 12.95 25.8584 14.1634 25.8584 15.4583C25.8584 19.1508 21.8118 22.1804 16.6529 22.4962Z" fill="white"/>
</svg>
